{"accessors":[{"bufferView":2,"componentType":5126,"count":384,"max":[18.062278747558594,10.338791847229004,10.538349151611328],"min":[0,0,0],"type":"VEC3","byteOffset":0},{"bufferView":2,"byteOffset":4608,"componentType":5126,"count":384,"max":[0.9999998807907104,1,1],"min":[-0.9999998807907104,-1,-1],"type":"VEC3"},{"bufferView":3,"componentType":5126,"count":384,"max":[1,0.7282863259315491,0.7873845100402832,1],"min":[-1,-0.7283012866973877,-0.7874012589454651,1],"type":"VEC4","byteOffset":0},{"bufferView":1,"componentType":5126,"count":384,"max":[0.7470740079879761,0.9921879768371582],"min":[0.007813000120222569,0.007813000120222569],"type":"VEC2","byteOffset":0},{"bufferView":0,"componentType":5125,"count":1824,"max":[383],"min":[0],"type":"SCALAR","byteOffset":0}],"asset":{"extras":{"author":"Austin Crane (Euclid) (https://sketchfab.com/Euclid)","license":"CC-BY-4.0 (http://creativecommons.org/licenses/by/4.0/)","source":"https://sketchfab.com/models/b5677cbb469d4be98e4777c244cfcf27","title":"Wilson Football"},"generator":"Sketchfab-3.25.5","version":"2.0"},"bufferViews":[{"buffer":0,"byteLength":7296,"byteOffset":0,"name":"floatBufferViews","target":34963},{"buffer":0,"byteLength":3072,"byteOffset":7296,"byteStride":8,"name":"floatBufferViews","target":34962},{"buffer":0,"byteLength":9216,"byteOffset":10368,"byteStride":12,"name":"floatBufferViews","target":34962},{"buffer":0,"byteLength":6144,"byteOffset":19584,"byteStride":16,"name":"floatBufferViews","target":34962},{"buffer":0,"byteOffset":25728,"byteLength":483812},{"buffer":0,"byteOffset":509540,"byteLength":897665},{"buffer":0,"byteOffset":1407208,"byteLength":714872}],"buffers":[{"byteLength":2122080,"uri":"data:application/octet-stream;base64,"}],"images":[{"bufferView":4,"mimeType":"image/png"},{"bufferView":5,"mimeType":"image/png"},{"bufferView":6,"mimeType":"image/png"}],"materials":[{"doubleSided":true,"emissiveFactor":[0,0,0],"name":"lambert2SG","normalTexture":{"index":1,"scale":1,"texCoord":0},"occlusionTexture":{"index":0,"strength":1,"texCoord":0},"pbrMetallicRoughness":{"baseColorFactor":[1,1,1,1],"baseColorTexture":{"index":2,"texCoord":0},"metallicFactor":0,"metallicRoughnessTexture":{"index":0,"texCoord":0},"roughnessFactor":1},"alphaMode":"OPAQUE"}],"meshes":[{"primitives":[{"attributes":{"NORMAL":1,"POSITION":0,"TANGENT":2,"TEXCOORD_0":3},"indices":4,"material":0,"mode":4}]}],"nodes":[{"children":[1],"name":"RootNode (gltf orientation matrix)","rotation":[-0.7071067811865475,0,0,0.7071067811865476],"translation":[0,0,0],"scale":[1,1,1]},{"children":[2],"name":"RootNode (model correction matrix)"},{"children":[3],"matrix":[1,0,0,0,0,1,0,0,0,0,1,0,-9.032127380371094,-5.169395923614502,-5.169395923614502,1],"name":"fb_low.obj.cleaner.gles"},{"children":[4],"name":""},{"mesh":0,"name":""}],"samplers":[{"magFilter":9729,"minFilter":9987,"wrapS":10497,"wrapT":10497}],"scene":0,"scenes":[{"name":"OSG_Scene","nodes":[0]}],"textures":[{"sampler":0,"source":0},{"sampler":0,"source":1},{"sampler":0,"source":2}]}
